<?xml version="1.0" encoding="UTF-8"?>
<svg width="100px" height="100px" viewBox="0 0 100 100" version="1.1" xmlns="http://www.w3.org/2000/svg" xmlns:xlink="http://www.w3.org/1999/xlink">
    <!-- Generator: Sketch 63.1 (92452) - https://sketch.com -->
    <title>Group 27</title>
    <desc>Created with Sketch.</desc>
    <defs>
        <polygon id="path-1" points="0.000454545455 0.513636364 99.4863636 0.513636364 99.4863636 99.9993182 0.000454545455 99.9993182"></polygon>
        <polygon id="path-3" points="0 100.486364 99.4863636 100.486364 99.4863636 1 0 1"></polygon>
    </defs>
    <g id="Home" stroke="none" stroke-width="1" fill="none" fill-rule="evenodd">
        <g transform="translate(-390.000000, -2067.000000)" id="Group-41">
            <g transform="translate(260.000000, 2066.000000)">
                <g id="Group-27" transform="translate(130.000000, 0.000000)">
                    <g id="Group-11">
                        <g id="Group-3" transform="translate(0.000000, 0.760000)">
                            <mask id="mask-2" fill="white">
                                <use xlink:href="#path-1"></use>
                            </mask>
                            <g id="Clip-2"></g>
                            <path d="M99.4868182,50.2561364 C99.4868182,77.7288636 77.2163636,99.9993182 49.7436364,99.9993182 C22.2709091,99.9993182 0.000454545455,77.7288636 0.000454545455,50.2561364 C0.000454545455,22.7834091 22.2709091,0.512954545 49.7436364,0.512954545 C77.2163636,0.512954545 99.4868182,22.7834091 99.4868182,50.2561364" id="Fill-1" fill="#F2FAF5" mask="url(#mask-2)"></path>
                        </g>
                        <path d="M74.4113636,58.7997727 C73.8818182,59.2634091 73.0227273,59.1975 72.5590909,58.6020455 C72.0954545,58.0725 72.1613636,57.2111364 72.7568182,56.7497727 C73.0886364,56.4838636 74.4113636,56.2202273 75.7363636,56.0202273 C75.2727273,57.2793182 74.7431818,58.5361364 74.4113636,58.7997727 L74.4113636,58.7997727 Z M68.2568182,46.1611364 C68.2568182,45.6975 68.8545455,44.5065909 69.5159091,43.3815909 C70.2431818,44.5065909 70.8386364,45.6975 70.9045455,46.0952273 C70.9045455,46.8225 70.3090909,47.4179545 69.6477273,47.4179545 C69.3159091,47.4179545 68.9863636,47.2861364 68.7227273,47.0884091 C68.4568182,46.8225 68.325,46.5588636 68.2568182,46.1611364 L68.2568182,46.1611364 Z M74.4772727,64.3588636 L64.7522727,64.3588636 L64.0886364,63.0338636 L75.1386364,63.0338636 L74.4772727,64.3588636 Z M73.2863636,69.9815909 L70.9704545,69.9815909 L66.0090909,69.9815909 L65.1477273,65.6815909 L74.1477273,65.6815909 L73.2863636,69.9815909 Z M56.6113636,69.9815909 L56.6113636,40.8679545 C56.6113636,35.0452273 51.8477273,30.2815909 46.025,30.2815909 C40.2022727,30.2815909 35.4386364,35.0452273 35.4386364,40.8679545 L35.4386364,69.9815909 L33.4545455,69.9815909 L33.4545455,40.8679545 C33.4545455,33.9202273 39.0772727,28.2952273 46.025,28.2952273 C52.9727273,28.2952273 58.5977273,33.9202273 58.5977273,40.8679545 L58.5977273,69.9815909 L56.6113636,69.9815909 Z M36.7613636,69.9815909 L36.7613636,40.8679545 C36.7613636,35.7725 40.9295455,31.6043182 46.025,31.6043182 C51.1204545,31.6043182 55.2886364,35.7725 55.2886364,40.8679545 L55.2886364,69.9815909 L36.7613636,69.9815909 Z M64.8181818,58.7997727 C64.4863636,58.5361364 63.9568182,57.2793182 63.4931818,56.0202273 C64.8181818,56.2202273 66.1409091,56.4838636 66.4704545,56.7497727 C67,57.2111364 67.1318182,58.0725 66.6704545,58.6020455 C66.2068182,59.1975 65.3477273,59.2634091 64.8181818,58.7997727 L64.8181818,58.7997727 Z M64.8181818,52.7793182 C64.4863636,52.5134091 63.9568182,51.2565909 63.4931818,49.9997727 C64.8181818,50.1975 66.1409091,50.4634091 66.4704545,50.7270455 C67,51.1906818 67.1318182,52.0497727 66.6704545,52.5793182 C66.2068182,53.1747727 65.3477273,53.2406818 64.8181818,52.7793182 L64.8181818,52.7793182 Z M72.7568182,50.7270455 C73.0886364,50.4634091 74.4113636,50.1975 75.7363636,49.9997727 C75.3386364,51.2565909 74.7431818,52.5134091 74.4113636,52.7793182 C73.8818182,53.2406818 73.0227273,53.1747727 72.5590909,52.5793182 C72.0954545,52.0497727 72.1613636,51.1906818 72.7568182,50.7270455 L72.7568182,50.7270455 Z M76.5954545,54.6315909 C76,54.6975 72.8909091,54.9634091 71.8977273,55.7565909 C70.9704545,56.5497727 70.7068182,57.8065909 71.1704545,58.8656818 L70.2431818,59.3952273 L70.2431818,54.9634091 L71.9636364,53.8361364 C72.4272727,54.1679545 73.0227273,54.3656818 73.5522727,54.3656818 C74.1477273,54.3656818 74.7431818,54.1679545 75.2068182,53.7725 C76.1977273,52.9770455 77.0590909,49.9997727 77.2568182,49.4043182 C77.3227273,49.2043182 77.2568182,48.9406818 77.125,48.8088636 C76.9931818,48.6111364 76.7931818,48.5429545 76.5295455,48.5429545 C75.9340909,48.6111364 72.8227273,48.8747727 71.8318182,49.6679545 C70.9045455,50.4634091 70.6409091,51.7202273 71.1022727,52.7793182 L70.1772727,53.3747727 L70.1772727,48.6747727 C71.3022727,48.4111364 72.1613636,47.3520455 72.1613636,46.0952273 C72.1613636,44.8384091 70.375,42.2588636 69.9772727,41.7952273 C69.8454545,41.5952273 69.6477273,41.5293182 69.4477273,41.5293182 C69.25,41.5293182 69.0522727,41.6611364 68.9181818,41.7952273 C68.5886364,42.3225 66.8681818,44.9043182 66.8681818,46.1611364 C66.8681818,46.8884091 67.2,47.5520455 67.6613636,48.0134091 C67.9931818,48.3452273 68.3909091,48.5429545 68.8545455,48.6747727 L68.8545455,53.3747727 L68.0590909,52.7793182 C68.5227273,51.7202273 68.2568182,50.4634091 67.3318182,49.6679545 C66.3386364,48.8747727 63.2295455,48.6111364 62.6340909,48.5429545 C62.4340909,48.5429545 62.2363636,48.6111364 62.0386364,48.8088636 C61.9068182,49.0065909 61.8386364,49.2043182 61.9068182,49.4043182 C62.1045455,49.9997727 62.9636364,52.9770455 63.9568182,53.7725 C64.4204545,54.1679545 65.0159091,54.3656818 65.6113636,54.3656818 C66.2068182,54.3656818 66.7363636,54.1679545 67.2,53.8361364 L68.9181818,54.9634091 L68.9181818,59.3952273 L67.9931818,58.7997727 C68.4568182,57.7406818 68.1931818,56.4838636 67.2659091,55.6906818 C66.2727273,54.8952273 63.1636364,54.6315909 62.5681818,54.5656818 C62.3681818,54.5656818 62.1704545,54.6315909 61.9727273,54.8293182 C61.9068182,55.0270455 61.8386364,55.2270455 61.9068182,55.4247727 C62.1045455,56.0202273 62.9636364,58.9975 63.9568182,59.7929545 C64.4204545,60.1884091 65.0159091,60.3884091 65.6113636,60.3884091 C66.2068182,60.3884091 66.7363636,60.1884091 67.2,59.8588636 L68.9181818,60.9838636 L68.9181818,61.7111364 L62.9636364,61.7111364 C62.7659091,61.7111364 62.5022727,61.8429545 62.3681818,62.0429545 C62.2363636,62.2406818 62.2363636,62.5043182 62.3681818,62.7043182 L63.625,65.2838636 L64.5522727,70.0497727 L59.9204545,70.0497727 L59.9204545,40.8679545 C59.9204545,33.1929545 53.7,26.9725 46.025,26.9725 C38.35,26.9725 32.1295455,33.1929545 32.1295455,40.8679545 L32.1295455,69.9815909 L22.8659091,69.9815909 C22.4704545,69.9815909 22.2045455,70.2475 22.2045455,70.6429545 C22.2045455,71.0406818 22.4704545,71.3043182 22.8659091,71.3043182 L32.7909091,71.3043182 L36.1,71.3043182 L55.95,71.3043182 L59.2590909,71.3043182 L65.4136364,71.3043182 L70.9045455,71.3043182 L73.8159091,71.3043182 C74.1477273,71.3043182 74.4113636,71.1088636 74.4772727,70.7770455 L75.5363636,65.2179545 L76.7931818,62.6361364 C76.925,62.4406818 76.8613636,62.1747727 76.7931818,61.9747727 C76.7272727,61.7770455 76.4636364,61.6452273 76.1977273,61.6452273 L70.2431818,61.6452273 L70.2431818,60.9179545 L71.9636364,59.7929545 C72.4272727,60.1247727 73.0227273,60.3202273 73.5522727,60.3202273 C74.1477273,60.3202273 74.7431818,60.1247727 75.2068182,59.7270455 C76.1977273,58.9315909 77.0590909,55.9543182 77.2568182,55.3588636 C77.3227273,55.1611364 77.2568182,54.8952273 77.125,54.7634091 C76.9931818,54.6315909 76.7931818,54.5656818 76.5954545,54.6315909 L76.5954545,54.6315909 Z" id="Fill-4" fill="#75BE9B"></path>
                        <path d="M51.9802273,56.7490909 L40.0688636,56.7490909 L40.0688636,40.8672727 C40.0688636,37.5604545 42.7165909,34.9127273 46.0256818,34.9127273 C49.3325,34.9127273 51.9802273,37.5604545 51.9802273,40.8672727 L51.9802273,56.7490909 Z M46.0256818,33.59 C41.9893182,33.59 38.7461364,36.8309091 38.7461364,40.8672727 L38.7461364,57.4104545 C38.7461364,57.8081818 39.0097727,58.0718182 39.4075,58.0718182 L52.6415909,58.0718182 C53.0393182,58.0718182 53.3052273,57.8081818 53.3052273,57.4104545 L53.3052273,40.8672727 C53.3052273,36.8309091 50.0620455,33.59 46.0256818,33.59 L46.0256818,33.59 Z" id="Fill-6" fill="#75BE9B"></path>
                        <mask id="mask-4" fill="white">
                            <use xlink:href="#path-3"></use>
                        </mask>
                        <g id="Clip-9"></g>
                        <path d="M40.0681818,66.6736364 L51.9795455,66.6736364 L51.9795455,61.3804545 L40.0681818,61.3804545 L40.0681818,66.6736364 Z M52.6409091,60.0577273 L39.4090909,60.0577273 C39.0113636,60.0577273 38.7477273,60.3213636 38.7477273,60.7190909 L38.7477273,67.335 C38.7477273,67.7327273 39.0113636,67.9963636 39.4090909,67.9963636 L52.6409091,67.9963636 C53.0386364,67.9963636 53.3045455,67.7327273 53.3045455,67.335 L53.3045455,60.7190909 C53.3045455,60.3213636 53.0386364,60.0577273 52.6409091,60.0577273 L52.6409091,60.0577273 Z" id="Fill-8" fill="#75BE9B" mask="url(#mask-4)"></path>
                        <path d="M49.7963636,50.3304545 C49.7304545,50.3304545 49.7304545,50.2645455 49.7304545,50.2645455 C49.6645455,50.2645455 49.6645455,50.1986364 49.5986364,50.1986364 C49.5327273,50.1986364 49.5327273,50.1986364 49.4645455,50.1327273 C49.2668182,50.0645455 49.0031818,50.1327273 48.8713636,50.3304545 C48.7372727,50.4622727 48.6713636,50.5940909 48.6713636,50.7940909 L48.6713636,50.9259091 C48.6713636,50.9918182 48.6713636,50.9918182 48.7372727,51.0577273 C48.7372727,51.1236364 48.8031818,51.1236364 48.8031818,51.1895455 L48.8713636,51.2577273 C48.9372727,51.3236364 49.0031818,51.3895455 49.0690909,51.3895455 C49.135,51.4554545 49.2668182,51.4554545 49.3327273,51.4554545 C49.5327273,51.4554545 49.6645455,51.3895455 49.7963636,51.2577273 C49.9304545,51.1236364 49.9940909,50.9259091 49.9940909,50.7940909 C49.9940909,50.7281818 49.9940909,50.5940909 49.9304545,50.5281818 C49.9304545,50.4622727 49.8622727,50.3963636 49.7963636,50.3304545" id="Fill-10" fill="#75BE9B" mask="url(#mask-4)"></path>
                    </g>
                </g>
            </g>
        </g>
    </g>
</svg>