<?xml version="1.0" encoding="UTF-8"?>
<svg width="100px" height="100px" viewBox="0 0 100 100" version="1.1" xmlns="http://www.w3.org/2000/svg" xmlns:xlink="http://www.w3.org/1999/xlink">
    <!-- Generator: Sketch 64 (93537) - https://sketch.com -->
    <title>icon-remote-worker</title>
    <desc>Created with Sketch.</desc>
    <g id="Home" stroke="none" stroke-width="1" fill="none" fill-rule="evenodd">
        <g id="icon-remote-worker" fill-rule="nonzero">
            <circle id="Oval" fill="#F2FAF5" cx="50" cy="50" r="50"></circle>
            <path d="M76.52,71.13 C76.523944,71.0900972 76.523944,71.0499028 76.52,71.01 C76.52,71.01 76.52,71.01 76.52,70.96 L50.65,32.64 L50.65,29.49 L60.9,29.49 C61.132405,29.4786632 61.342287,29.3475604 61.4544205,29.1436813 C61.566554,28.9398022 61.5648806,28.6923439 61.45,28.49 L58.82,24.7 L61.44,21.12 C61.59025,20.9195994 61.6097885,20.6499686 61.49,20.43 C61.3769093,20.2083852 61.1488011,20.0692005 60.9,20.07 L50.63,20.07 L50.63,19.53 C50.6245349,19.1638803 50.3261605,18.87 49.96,18.87 L49.96,18.87 C49.7832106,18.87 49.6138036,18.9408863 49.4897381,19.0668316 C49.3656726,19.1927769 49.2973214,19.3632309 49.3,19.54 L49.3,32.54 L23.55,71 C23.55,71 23.55,71 23.55,71.05 C23.5273498,71.0907883 23.5105198,71.1345461 23.5,71.18 L23.5,71.31 C23.5,71.31 23.5,71.31 23.5,71.37 C23.5,71.43 23.5,71.37 23.5,71.43 L23.5,71.56 C23.5105265,71.5991587 23.5274184,71.6363208 23.55,71.67 L23.62,71.78 L23.71,71.87 C23.71,71.87 23.71,71.87 23.71,71.87 L23.78,71.87 L23.85,71.87 C23.9226847,71.8837932 23.9973153,71.8837932 24.07,71.87 L76,71.87 L76.13,71.87 L76.25,71.87 L76.31,71.87 L76.31,71.87 L76.4,71.78 L76.47,71.67 C76.4754809,71.6335382 76.4754809,71.5964618 76.47,71.56 L76.47,71.43 C76.47,71.43 76.47,71.43 76.47,71.37 C76.47,71.31 76.47,71.37 76.47,71.31 L76.52,71.13 Z M74.65,70.66 L60.65,70.66 C61.6243343,68.2002684 63.7975568,66.4163362 66.4,65.94 C66.6451523,65.8870616 66.8402099,65.7016382 66.9054875,65.4594792 C66.9707651,65.2173203 66.8953304,64.9589815 66.71,64.79 C66.58,64.67 53.71,53.45 50.61,40.5 L50.61,35 L74.65,70.66 Z M50,50.14 C51.69,61.78 56.16,68.21 58.24,70.66 L41.76,70.66 C43.84,68.21 48.31,61.78 50,50.14 Z M40.49,70.07 C39.4898184,67.6116512 37.4490656,65.7247792 34.92,64.92 C37.48,62.07 45.74,52.63 49.16,45.48 C48.1,60.09 42.5,67.76 40.49,70.07 Z M50.83,45.37 C54.61,54.8 62.28,62.47 65,65 C62.5229656,65.833007 60.5303284,67.7015605 59.54,70.12 C57.49,67.77 51.87,60.09 50.83,45.37 L50.83,45.37 Z M59.59,21.37 L57.47,24.27 C57.3047649,24.5000732 57.3047649,24.8099268 57.47,25.04 L59.64,28.13 L50.64,28.13 L50.64,21.4 L59.59,21.37 Z M49.34,40.55 C48.93,47.76 33.34,64.67 33.19,64.84 C33.0259158,65.0177234 32.9721974,65.2709673 33.05,65.5 C33.1212102,65.7286679 33.3141341,65.8984409 33.55,65.94 C36.1524432,66.4163362 38.3256657,68.2002684 39.3,70.66 L25.35,70.66 L49.35,34.94 L49.34,40.55 Z" id="Shape" stroke="#75BE9B" stroke-width="0.1" fill="#75BE9B"></path>
        </g>
    </g>
</svg>