<?xml version="1.0" encoding="UTF-8"?>
<svg width="100px" height="100px" viewBox="0 0 100 100" version="1.1" xmlns="http://www.w3.org/2000/svg" xmlns:xlink="http://www.w3.org/1999/xlink">
    <!-- Generator: Sketch 63.1 (92452) - https://sketch.com -->
    <title>Group 8</title>
    <desc>Created with Sketch.</desc>
    <defs>
        <polygon id="path-1" points="0 0.513636364 99.4863636 0.513636364 99.4863636 99.9993182 0 99.9993182"></polygon>
        <polygon id="path-3" points="0 100.486364 99.4863636 100.486364 99.4863636 1 0 1"></polygon>
    </defs>
    <g id="Home" stroke="none" stroke-width="1" fill="none" fill-rule="evenodd">
        <g transform="translate(-790.000000, -2069.000000)" id="Group-39">
            <g transform="translate(660.000000, 2068.000000)">
                <g id="Group-8" transform="translate(130.000000, 0.000000)">
                    <g id="Group-3" transform="translate(0.000000, 0.760000)">
                        <mask id="mask-2" fill="white">
                            <use xlink:href="#path-1"></use>
                        </mask>
                        <g id="Clip-2"></g>
                        <path d="M99.4881818,50.2561364 C99.4881818,77.7288636 77.2154545,99.9993182 49.7427273,99.9993182 C22.27,99.9993182 -0.000454545455,77.7288636 -0.000454545455,50.2561364 C-0.000454545455,22.7834091 22.27,0.512954545 49.7427273,0.512954545 C77.2154545,0.512954545 99.4881818,22.7834091 99.4881818,50.2561364" id="Fill-1" fill="#F2FAF5" mask="url(#mask-2)"></path>
                    </g>
                    <mask id="mask-4" fill="white">
                        <use xlink:href="#path-3"></use>
                    </mask>
                    <g id="Clip-5"></g>
                    <path d="M27.0977273,38.8236364 L46.0409091,38.8236364 L46.0409091,37.4440909 L27.0977273,37.4440909 L27.0977273,38.8236364 Z M41.7340909,35.8986364 L43.1159091,35.8986364 L43.1159091,31.5895455 L41.7340909,31.5895455 L41.7340909,35.8986364 Z M35.8795455,35.8963636 L40.1886364,35.8963636 L40.1886364,34.5168182 L35.8795455,34.5168182 L35.8795455,35.8963636 Z M32.9522727,35.8986364 L34.3318182,35.8986364 L34.3318182,28.6622727 L32.9522727,28.6622727 L32.9522727,35.8986364 Z M30.025,35.8986364 L31.4045455,35.8986364 L31.4045455,31.5895455 L30.025,31.5895455 L30.025,35.8986364 Z M26.325,40.3713636 L28.4795455,40.3713636 L28.4795455,42.5259091 C28.4795455,42.9827273 28.7954545,43.2986364 29.2522727,43.2986364 C29.7068182,43.2986364 30.025,42.9827273 30.025,42.5259091 L30.025,40.3713636 L43.1159091,40.3713636 L43.1159091,42.5259091 C43.1159091,42.9827273 43.4340909,43.2986364 43.8886364,43.2986364 C44.3454545,43.2986364 44.6613636,42.9827273 44.6613636,42.5259091 L44.6613636,40.3713636 L46.8159091,40.3713636 C47.2727273,40.3713636 47.5886364,40.0531818 47.5886364,39.5986364 L47.5886364,36.6713636 C47.5886364,36.2145455 47.2727273,35.8963636 46.8159091,35.8963636 L44.6613636,35.8963636 L44.6613636,30.8168182 C44.6613636,30.36 44.3454545,30.0418182 43.8886364,30.0418182 L40.9613636,30.0418182 C40.5068182,30.0418182 40.1886364,30.36 40.1886364,30.8168182 L40.1886364,32.9690909 L35.8795455,32.9690909 L35.8795455,27.8872727 C35.8795455,27.4327273 35.5613636,27.1168182 35.1068182,27.1168182 L32.1795455,27.1168182 C31.7227273,27.1168182 31.4068182,27.4327273 31.4068182,27.8872727 L31.4068182,30.0418182 L29.2522727,30.0418182 C28.7954545,30.0418182 28.4795455,30.36 28.4795455,30.8168182 L28.4795455,35.8963636 L26.325,35.8963636 C25.8681818,35.8963636 25.5522727,36.2145455 25.5522727,36.6713636 L25.5522727,39.5986364 C25.5522727,40.0531818 25.8681818,40.3713636 26.325,40.3713636 L26.325,40.3713636 Z" id="Fill-4" fill="#75BE9B" mask="url(#mask-4)"></path>
                    <path d="M33.9143182,52.0815909 L34.0052273,50.7884091 L34.4688636,50.7861364 C34.4779545,50.7906818 34.5029545,50.8225 34.5029545,50.8952273 L34.3665909,52.0088636 L34.3665909,52.0111364 C34.3597727,52.0565909 34.3393182,52.0793182 34.3347727,52.0815909 L33.9143182,52.0815909 Z M29.7461364,52.8247727 C29.7393182,52.8225 29.7143182,52.7952273 29.7097727,52.7452273 L29.4984091,49.6725 L32.8938636,49.6725 L32.6802273,52.7452273 C32.6756818,52.7906818 32.6552273,52.8179545 32.6461364,52.8247727 L29.7461364,52.8247727 Z M72.3915909,55.0088636 L72.3915909,56.3884091 L56.0415909,56.3884091 C55.6302273,55.8452273 55.1893182,55.3906818 54.7075,55.0088636 L72.3915909,55.0088636 Z M69.2825,57.9361364 C68.9847727,58.7588636 68.2052273,59.3156818 67.3075,59.3156818 L57.3802273,59.3156818 C57.2506818,58.8384091 57.1052273,58.3725 56.8984091,57.9361364 L69.2825,57.9361364 Z M42.5484091,57.9361364 C42.3893182,58.3088636 42.2006818,58.7884091 42.0484091,59.3156818 L32.1802273,59.3156818 C31.2893182,59.3156818 30.5052273,58.7702273 30.1620455,57.9361364 L42.5484091,57.9361364 Z M43.1984091,63.0179545 C43.1984091,60.0270455 44.0484091,55.0088636 49.7438636,55.0088636 C55.4393182,55.0088636 56.2893182,60.0270455 56.2893182,63.0179545 C56.2893182,63.4725 56.6052273,63.7906818 57.0643182,63.7906818 L58.7484091,63.7906818 L58.7484091,64.7725 C58.7484091,66.6088636 57.2575,68.0975 55.4234091,68.0975 L44.0643182,68.0975 C42.2302273,68.0975 40.7393182,66.6088636 40.7393182,64.7725 L40.7393182,63.7906818 L42.4256818,63.7906818 C42.8802273,63.7906818 43.1984091,63.4725 43.1984091,63.0179545 L43.1984091,63.0179545 Z M44.7711364,55.0088636 C44.2325,55.4270455 43.7847727,55.8906818 43.4393182,56.3884091 L27.0984091,56.3884091 L27.0984091,55.0088636 L44.7711364,55.0088636 Z M73.1643182,53.4611364 L33.6825,53.4611364 C33.6961364,53.4361364 33.7165909,53.4134091 33.7279545,53.3861364 L34.3415909,53.3861364 L34.3552273,53.3861364 C34.9620455,53.3861364 35.4779545,52.8702273 35.5620455,52.1815909 L35.6938636,51.0634091 C35.7393182,50.6656818 35.6325,50.2656818 35.4029545,49.9634091 C35.1711364,49.6565909 34.8347727,49.4815909 34.4847727,49.4815909 L34.4711364,49.4815909 L34.0984091,49.4815909 L34.1279545,49.0702273 C34.1415909,48.8975 34.0893182,48.7225 33.9870455,48.5952273 C33.8734091,48.4497727 33.7097727,48.3679545 33.5347727,48.3679545 L28.8552273,48.3679545 C28.6802273,48.3679545 28.5165909,48.4497727 28.4029545,48.5952273 C28.3006818,48.7247727 28.2506818,48.8997727 28.2643182,49.0679545 L28.5279545,52.8475 C28.5461364,53.0770455 28.6188636,53.2793182 28.7188636,53.4611364 L26.3256818,53.4611364 C25.8688636,53.4611364 25.5506818,53.7793182 25.5506818,54.2338636 L25.5506818,57.1611364 C25.5506818,57.6179545 25.8688636,57.9361364 26.3256818,57.9361364 L28.5688636,57.9361364 C28.8620455,59.3452273 29.9961364,60.4815909 31.4052273,60.7725 L31.4052273,74.7270455 C31.4052273,75.1815909 31.7234091,75.4997727 32.1802273,75.4997727 C32.6347727,75.4997727 32.9529545,75.1815909 32.9529545,74.7270455 L32.9529545,60.8634091 L41.8075,60.8634091 L41.7734091,61.2043182 C41.7370455,61.5406818 41.7029545,61.8747727 41.6688636,62.2429545 L39.9665909,62.2429545 C39.5097727,62.2429545 39.1938636,62.5611364 39.1938636,63.0179545 L39.1938636,64.7725 C39.1938636,66.9725 40.6097727,68.8293182 42.7393182,69.4611364 L40.2597727,74.4225 C40.1097727,74.8020455 40.2575,75.2588636 40.5847727,75.4225 C40.7415909,75.4997727 40.8325,75.4997727 40.9620455,75.4997727 C41.2665909,75.4997727 41.5075,75.3429545 41.6552273,75.0452273 L44.3575,69.6452273 L46.0415909,69.6452273 L46.0415909,74.7270455 C46.0415909,75.1815909 46.3620455,75.4997727 46.8165909,75.4997727 C47.2711364,75.4997727 47.5893182,75.1815909 47.5893182,74.7270455 L47.5893182,69.6452273 L51.8984091,69.6452273 L51.8984091,74.7270455 C51.8984091,75.1815909 52.2165909,75.4997727 52.6711364,75.4997727 C53.1256818,75.4997727 53.4438636,75.1815909 53.4438636,74.7270455 L53.4438636,69.6452273 L55.1325,69.6452273 L57.8302273,75.0452273 C58.0188636,75.4225 58.3120455,75.4997727 58.5256818,75.4997727 C58.6438636,75.4997727 58.7575,75.4997727 58.8643182,75.4134091 C59.0347727,75.3338636 59.1665909,75.1884091 59.2279545,75.0088636 C59.2961364,74.8088636 59.2688636,74.5838636 59.1620455,74.4088636 L56.6893182,69.4656818 C58.7597727,68.8815909 60.2347727,66.9452273 60.2347727,64.7725 L60.2347727,63.0179545 C60.2347727,62.5611364 59.9165909,62.2429545 59.4620455,62.2429545 L57.7734091,62.2429545 C57.7665909,61.7679545 57.7256818,61.3361364 57.6393182,60.8634091 L66.5370455,60.8634091 L66.5370455,74.7270455 C66.5370455,75.1815909 66.8529545,75.4997727 67.3075,75.4997727 C67.7643182,75.4997727 68.0802273,75.1815909 68.0802273,74.7270455 L68.0802273,60.7725 C69.4893182,60.4793182 70.6279545,59.3452273 70.9188636,57.9361364 L73.1643182,57.9361364 C73.6188636,57.9361364 73.9325,57.6179545 73.9325,57.1611364 L73.9325,54.2338636 C73.9325,53.7793182 73.6188636,53.4611364 73.1643182,53.4611364 L73.1643182,53.4611364 Z" id="Fill-6" fill="#75BE9B" mask="url(#mask-4)"></path>
                    <path d="M62.3122727,41.7520455 C62.6872727,39.2815909 64.7986364,37.4429545 67.3077273,37.4429545 C69.8168182,37.4429545 71.9281818,39.2815909 72.3031818,41.7520455 L62.3122727,41.7520455 Z M61.4531818,43.2997727 L73.1622727,43.2997727 C73.6190909,43.2997727 73.9327273,42.9815909 73.9327273,42.5247727 C73.9327273,39.1997727 71.3759091,36.3565909 68.0804545,35.9747727 L68.0804545,27.8884091 C68.0804545,27.4338636 67.7622727,27.1156818 67.3077273,27.1156818 C66.8531818,27.1156818 66.535,27.4338636 66.535,27.8884091 L66.535,35.9747727 C63.2372727,36.3565909 60.6804545,39.1997727 60.6804545,42.5247727 C60.6804545,42.9815909 60.9986364,43.2997727 61.4531818,43.2997727 L61.4531818,43.2997727 Z" id="Fill-7" fill="#75BE9B" mask="url(#mask-4)"></path>
                </g>
            </g>
        </g>
    </g>
</svg>