<svg id="Layer_1" data-name="Layer 1" xmlns="http://www.w3.org/2000/svg" viewBox="0 0 500 93.77"><defs><style>.cls-1{fill:#fff;}</style></defs><title>spacemade-new-logo-white</title><path class="cls-1" d="M110.36,24.94c-10.52,0-20.48,4.7-20.48,16.93h11.74c0-5.27,3.57-8,8.74-8,4.89,0,8.64,2.16,8.64,5.84,0,9.41-30.53.37-30.53,20.6,0,9.51,7.7,13.55,15.79,13.55,6.48,0,11.92-2.35,14.93-7.9v7h11.09V40.18C130.28,29.17,120.7,24.94,110.36,24.94Zm8.83,28.6c0,7.15-6,10.91-12.59,10.91h0c-3.76,0-6.57-1.6-6.57-4.89,0-6,11.64-5.08,19.16-8.19Z" transform="translate(-2 -2.46)"/><path class="cls-1" d="M276.78,24.92c-6.48,0-11.83,3.11-14.65,8.66-2.73-5.74-8.08-8.66-14.47-8.66A14.27,14.27,0,0,0,235.07,32V25.87H223.8V49.21c-.08-14.31-9.91-24.3-23.3-24.3S177.2,35,177.2,49.37a29.32,29.32,0,0,0,.24,3.79H165.8c-1,6.87-6,10.35-11.94,10.35-7,0-12.3-5.64-12.3-14.12s5.26-14.11,12.3-14.11c5.92,0,10.9,3.11,11.65,9.31h11.84c-1.13-11.76-10.81-19.67-23.49-19.67-13.53,0-23.58,10.08-23.58,24.47s10.05,24.47,23.58,24.47c13,0,23-8.27,23.58-20.67C179,65.52,188.29,73.85,200.5,73.85c11.09,0,19.26-5.27,22.08-15.06H210.37C208.86,62.08,206,64,201,64c-6.95,0-11.46-4-12.68-10.83h35.32c.09-1.18.18-2.38.19-3.65V72.92h11.27V46.1c0-7.34,3.38-11.3,8.92-11.3s8.93,4,8.93,11.3V72.92H264.2V46.1c0-7.34,3.37-11.3,8.92-11.3s8.93,4,8.93,11.3V72.92h11.27V43.84C293.32,31.23,286.27,24.92,276.78,24.92Zm-88.4,20.22c1.22-6.58,5.54-10.35,12.12-10.35s10.9,3.77,12.12,10.35Z" transform="translate(-2 -2.46)"/><path class="cls-1" d="M315.21,24.94c-10.52,0-20.48,4.7-20.48,16.93h11.74c0-5.27,3.57-8,8.74-8,4.89,0,8.64,2.16,8.64,5.84,0,9.41-30.53.37-30.53,20.6,0,9.51,7.7,13.55,15.79,13.55,6.48,0,11.93-2.35,14.93-7.9v7h11.09V40.18C335.13,29.17,325.54,24.94,315.21,24.94ZM324,53.54c0,7.15-6,10.91-12.59,10.91h0c-3.76,0-6.58-1.6-6.58-4.89,0-6,11.65-5.08,19.17-8.19Z" transform="translate(-2 -2.46)"/><path class="cls-1" d="M67.2,24.92a18,18,0,0,0-14.1,6.87V25.86H41.83V59.32c0-19.32-27.62-11.63-27.62-20.66,0-3,2.82-4.8,7-4.8,4.61,0,8,3,8,7H41c0-8.94-8.46-15.9-19.73-15.9-10.43,0-18.42,5.46-18.42,14.21,0,19.19,27.34,10.72,27.34,20.7,0,3.48-2.82,5.17-7.51,5.17-5.07,0-8.92-2.54-8.92-7.62H2c0,10.45,8.92,16.47,20.66,16.47,11,0,19.14-5.54,19.17-14.45V96.23c6.09-1,11.26-1.7,11.26-5.58V67a18,18,0,0,0,14.1,6.87c12.87,0,22.54-10.07,22.54-24.47S80.07,24.92,67.2,24.92ZM65.79,63.51c-7.24,0-12.69-5.65-12.69-14.12s5.45-14.11,12.69-14.11,12.68,5.64,12.68,14.11S73,63.51,65.79,63.51Z" transform="translate(-2 -2.46)"/><path class="cls-1" d="M488.07,64H406.81c-6.95,0-11.46-4-12.68-10.83h35.32c.09-1.22.19-2.44.19-3.76,0-14.39-9.86-24.47-23.3-24.47S383.07,35,383,49.34V2.46C377,3.41,371.79,4.15,371.79,8l0,23.66a18,18,0,0,0-14.09-6.87c-12.88,0-22.55,10.07-22.55,24.47s9.67,24.47,22.55,24.47a18,18,0,0,0,14.09-6.87v5.93H383V49.45c0,14.37,9.88,24.41,23.3,24.41H502v0C500.65,67.15,494.56,64.16,488.07,64ZM406.34,34.81c6.58,0,10.9,3.76,12.12,10.35H394.22C395.45,38.57,399.76,34.81,406.34,34.81Zm-47.25,28.6c-7.24,0-12.69-5.65-12.69-14.12s5.45-14.11,12.69-14.11,12.68,5.65,12.68,14.11S366.32,63.41,359.09,63.41Z" transform="translate(-2 -2.46)"/></svg>